<svg xmlns="http://www.w3.org/2000/svg" width="215.125" height="43" viewBox="0 0 215.125 43"><path fill="#2075BC" d="M43 21.5C43 33.374 33.374 43 21.5 43S0 33.374 0 21.5 9.626 0 21.5 0 43 9.626 43 21.5"/><path fill="#FFF" d="M18.514 31.956v-9.571H15.46v-4.072h3.054v-3.054s.205-4.481 4.075-4.481h3.867v3.869H23.81s-1.427.407-1.427 1.221v2.445h4.073v4.072h-4.275v9.571h-3.667z"/><path fill="#29AAE1" d="M86 21.5C86 33.374 76.374 43 64.5 43 52.625 43 43 33.374 43 21.5S52.625 0 64.5 0C76.374 0 86 9.626 86 21.5"/><path fill="#FFF" d="M71.623 15.608s-2.423-3.085-4.849-1.543c-2.426 1.543-1.984 5.07-1.984 5.07s-4.41-1.092-5.952-2.751c-1.544-1.655-2.455-2.255-1.912.695.578 3.127 1.469 3.085 1.469 3.085l-3.233.148s4.411 2.865 5.292 3.086c.882.22-2.206-.662-2.646.879-.442 1.546 2.571 2.133 4.336 2.133 1.763 0-3.603 1.764-5.769 2.204 0 0 17.894 3.969 15.247-10.802l2.206-.44-1.324-1.028 1.324-1.177-2.205.441z"/><path fill="#BA2032" d="M172 21.5c0 11.875-9.625 21.5-21.5 21.5S129 33.375 129 21.5C129 9.626 138.625 0 150.5 0S172 9.626 172 21.5"/><path fill="#FFF" d="M156.966 14.729h-12.932a3.31 3.31 0 0 0-3.312 3.311v7.099a3.313 3.313 0 0 0 3.312 3.312h12.932a3.312 3.312 0 0 0 3.312-3.312V18.04a3.31 3.31 0 0 0-3.312-3.311m-9.025 10.77l-.062-7.816 6.754 3.684-6.692 4.132z"/><g><path fill="#EC2427" d="M215 21.5c0 11.874-9.625 21.5-21.5 21.5-11.873 0-21.5-9.627-21.5-21.5S181.625 0 193.5 0 215 9.626 215 21.5"/><path fill="#FFF" d="M192.723 21.306c1.694-1.219 2.104-3.78.541-5.282 0 0-.067-.949 1.692-1.354 0 0-9.791-1.398-8.938 4.335 0 0 .599 2.042 2.845 2.572 3.188.752-1.355 2.438-2.033 2.981-.677.541-1.896 1.601-1.625 3.034.271 1.437 2.438 2.654 5.553 2.247 3.115-.406 4.877-2.844 3.66-4.876-1.222-2.029-3.385-2.438-1.695-3.657m-3.725-5.285c1.627-1.084 2.975 1.627 2.975 1.627s.751 3.657-1.485 3.385c-2.238-.272-3.117-3.927-1.49-5.012m1.064 12.598c-2.051.134-3.232-1.76-1.898-3.116 1.332-1.354 2.594-1.626 2.594-1.626s1.897.814 2.507 2.374c.608 1.561-1.153 2.233-3.203 2.368M198.339 14.812h.772v6.729h-.772z"/><path fill="#FFF" d="M195.5 17.82h6.334v.712H195.5z"/></g><g><radialGradient id="a" cx="93.221" cy="42.651" r="44.897" gradientTransform="matrix(.9892 0 0 .9926 1.393 .8)" gradientUnits="userSpaceOnUse"><stop offset=".117" stop-color="#ffe794"/><stop offset=".284" stop-color="#ffb664"/><stop offset=".467" stop-color="#ff8a39"/><stop offset=".681" stop-color="#f84f7f"/><stop offset="1" stop-color="#5149d7"/></radialGradient><ellipse fill="url(#a)" cx="107.547" cy="21.5" rx="21.426" ry="21.5"/><path fill="#FFF" d="M107.397 16.793c-2.642 0-4.785 2.125-4.785 4.749 0 2.623 2.143 4.75 4.785 4.75 2.643 0 4.786-2.128 4.786-4.75 0-2.623-2.142-4.749-4.786-4.749zm0 7.869c-1.736 0-3.144-1.396-3.144-3.12 0-1.723 1.408-3.12 3.144-3.12 1.737 0 3.145 1.397 3.145 3.12 0 1.724-1.408 3.12-3.145 3.12z"/><path fill="#FFF" d="M111.356 30.854c-.057 0-.099-.002-.125-.003h-7.745c-.282.012-2.421.035-3.963-1.415-1.021-.959-1.537-2.313-1.537-4.028V18.04c-.025-.351-.106-2.437 1.326-4.003 1.029-1.125 2.549-1.696 4.52-1.696h7.055c1.971 0 3.491.571 4.519 1.696 1.433 1.566 1.354 3.652 1.328 4.003v7.368c0 1.715-.518 3.069-1.539 4.028-1.399 1.317-3.289 1.418-3.839 1.418zm-7.91-1.666l7.847.002c.014 0 1.671.061 2.758-.971.665-.631 1.004-1.579 1.004-2.812v-7.441l.005-.04c.001-.012.133-1.657-.905-2.782-.697-.756-1.798-1.139-3.269-1.139h-7.055c-1.472 0-2.571.383-3.269 1.139-1.037 1.125-.906 2.77-.904 2.785l.004.04-.001.036v7.401c0 1.239.341 2.188 1.014 2.821 1.083 1.019 2.731.961 2.749.961h.022z"/><ellipse fill="#FFF" cx="112.388" cy="16.579" rx="1.2" ry="1.191"/></g></svg>