<svg xmlns="http://www.w3.org/2000/svg" xmlns:xlink="http://www.w3.org/1999/xlink" width="2646" height="63" viewBox="-0.506 0 2646 63"><circle fill="#C4197F" cx="894.9" cy="-1355.7" r="31.5"/><path fill="#FFF" d="M886.63-1363.85c-4.53 4.53-4.53 11.87 0 16.39 4.53 4.53 11.87 4.53 16.4 0s4.53-11.87 0-16.39c-4.53-4.53-11.87-4.53-16.4 0zm14.4 14.39c-3.42 3.42-8.97 3.42-12.391 0a8.764 8.764 0 0 1 0-12.39c3.42-3.42 8.971-3.42 12.4 0 3.411 3.42 3.411 8.97-.009 12.39z"/><path fill="#FFF" d="M887.918-1364.772l-2.284 2.285-7.929-7.926 2.284-2.284z"/><path fill="#FFF" d="M878.92-1365.68h-3.23l-.1-9.21 3.33 3.14z"/><path fill="#FFF" d="M884.91-1374.91v3.24h-6.06l-3.26-3.22zM901.958-1346.511l2.284-2.284 7.926 7.928-2.285 2.284z"/><path fill="#FFF" d="M910.88-1345.71h3.23l.1 9.21-3.33-3.14z"/><path fill="#FFF" d="M904.89-1336.49v-3.23h6.06l3.26 3.22zM885.604-1348.675l2.284 2.285-7.93 7.924-2.282-2.285z"/><path fill="#FFF" d="M884.91-1339.72v3.23l-9.21.1 3.15-3.33z"/><path fill="#FFF" d="M875.69-1345.71h3.23v6.07l-3.22 3.25zM904.09-1362.7l-2.282-2.284 7.93-7.922 2.283 2.284z"/><path fill="#FFF" d="M904.89-1371.67v-3.24l9.21-.09-3.15 3.33z"/><path fill="#FFF" d="M914.11-1365.68h-3.23v-6.07l3.22-3.25z"/><circle fill="#00B4E0" cx="831.9" cy="-1355.7" r="31.5"/><path fill="#FFF" d="M838.96-1352.19c-1.46 2.57-4.21 4.31-7.38 4.31-4.68 0-8.48-3.8-8.48-8.48 0-2.77 1.33-5.21 3.381-6.76l-2.211-2.63c-2.8 2.18-4.6 5.57-4.6 9.39 0 6.58 5.33 11.91 11.91 11.91 5.11 0 9.45-3.22 11.15-7.74h-3.77z"/><path fill="#FFF" d="M833.12-1361.535l-2.89 2.632-10.274-11.284 2.89-2.632zM847.551-1355.104l.01 3.91-15.27.038-.01-3.91zM821.668-1373.965l-2.892 2.633-2.652-2.913 2.891-2.633zM831.44-1341.63c3.189 0 5.97 1.77 7.42 4.38h3.76c-1.67-4.55-6.04-7.81-11.17-7.81-5.11 0-9.45 3.22-11.15 7.74h3.771a8.425 8.425 0 0 1 7.369-4.31z"/><circle fill="#EB8B23" cx="768.9" cy="-1355.7" r="31.5"/><path fill="none" stroke="#FFF" stroke-width="2.5" stroke-miterlimit="10" d="M780.93-1342.9v-27.35c0-2.84-2.3-5.14-5.14-5.14h-22.6c2.84 0 5.14 2.3 5.14 5.14v27.35c0 2.84 2.3 5.14 5.14 5.14"/><path fill="none" stroke="#FFF" stroke-width="2.5" stroke-miterlimit="10" d="M753.18-1375.39c-2.84 0-5.14 2.3-5.14 5.14h10.27M786.06-1337.76c2.841 0 5.141-2.3 5.141-5.13H768.6c0 2.84-2.3 5.14-5.14 5.14h22.6v-.01zM762.69-1367.29h13.98M762.69-1361.42h13.98M762.69-1355.56h13.98M762.69-1349.7h13.98"/><circle fill="#EB8B23" cx="705.9" cy="-1355.7" r="31.5"/><path fill="#FFF" d="M705.9-1336.94l-17.33-7.02v-29.35l17.22 6.78 17.44-6.77v29.34l-17.33 7.02zm-14.32-9.05l14.32 5.8 14.319-5.8v-22.92l-14.43 5.6-14.2-5.59-.009 22.91z"/><path fill="#FFF" d="M704.28-1364.92h3.01v26.36h-3.01zM701.33-1358.31v-3.3l-6.97-2.67-.02 3.22zM701.33-1351.67v-3.29l-6.97-2.68-.02 3.23zM701.33-1345.02v-3.3l-6.97-2.67-.02 3.22zM710.04-1358.31v-3.3l6.97-2.67.03 3.22zM710.04-1351.67v-3.29l6.97-2.68.03 3.23zM710.04-1345.02v-3.3l6.97-2.67.03 3.22z"/><circle fill="#78BD43" cx="642.89" cy="-1355.7" r="31.5"/><path fill="#FFF" d="M637.97-1376.8a6.363 6.363 0 0 0 0 8.99 6.361 6.361 0 0 0 8.99 0 6.343 6.343 0 0 0 0-8.99 6.343 6.343 0 0 0-8.99 0zm7.06 7.05c-1.41 1.41-3.7 1.41-5.11 0s-1.41-3.7 0-5.11a3.615 3.615 0 0 1 5.11 0 3.615 3.615 0 0 1 0 5.11zm-6.87 1.94l-3.47 7.82h15.63l-3.58-7.82-2.21 1.58 1.6 3.52-7.16-.06 1.65-3.51M649.23-1354.73c-2.48 2.48-2.48 6.51 0 9a6.36 6.36 0 0 0 8.989 0c2.48-2.48 2.48-6.51 0-9a6.36 6.36 0 0 0-8.989 0zm7.06 7.06c-1.41 1.41-3.7 1.41-5.11 0s-1.41-3.7 0-5.12a3.627 3.627 0 0 1 5.12 0c1.4 1.42 1.4 3.71-.01 5.12zm-6.87 1.94l-3.47 7.82h15.63l-3.58-7.82-2.21 1.58 1.6 3.52-7.159-.06 1.649-3.51M626.79-1354.73c-2.48 2.48-2.48 6.51 0 9 2.479 2.48 6.51 2.48 9 0 2.479-2.48 2.479-6.51 0-9-2.48-2.48-6.51-2.48-9 0zm7.06 7.06c-1.409 1.41-3.699 1.41-5.109 0s-1.41-3.7 0-5.12a3.614 3.614 0 0 1 5.109 0 3.627 3.627 0 0 1 0 5.12zm-6.86 1.94l-3.471 7.82h15.631l-3.58-7.82-2.21 1.58 1.6 3.52-7.16-.06 1.65-3.51"/><circle fill="#78BD43" cx="579.89" cy="-1355.7" r="31.5"/><path fill="#FFF" d="M571.51-1372.59v12.48h16.471v-12.48H571.51zm13.74 10.07h-11.01v-7.65h11.01v7.65zM557.26-1354.43v12.48h16.471v-12.48H557.26zm13.74 10.06h-11.01v-7.65H571v7.65zM585.81-1354.43v12.48h16.471v-12.48H585.81zm13.74 10.06h-11.01v-7.65h11.01v7.65zM578.45-1360.11h2.6v13.22h-2.6z"/><path fill="#FFF" d="M571.66-1349.49h16.17v2.6h-16.17z"/><circle fill="#EB8B23" cx="516.89" cy="-1355.7" r="31.5"/><path fill="#FFF" d="M507.43-1372.22h3.011v38.32h-3.011z"/><path fill="#FFF" d="M514.63-1360.47h-11.29v-11.75h3.01v8.74h5.27v-8.74h3.01zM527.01-1333.84h-8.189v-37.56l8.189-2.97v40.53zm-5.19-3.01H524v-33.23l-2.18.79v32.44z"/><path fill="#FFF" d="M520.32-1354.15h5.18v3.01h-5.18z"/><circle fill="#EB8B23" cx="453.89" cy="-1355.7" r="31.5"/><path fill="#FFF" d="M473.2-1344.21h-38.61v-23.36l19.3 15.58 19.311-15.58v23.36h-.001zm-36.35-2.26h34.091v-16.36l-17.051 13.75-17.04-13.75v16.36z"/><path fill="#FFF" d="M434.58-1367.57h38.61v2.65h-38.61z"/><circle fill="#DEB209" cx="390.89" cy="-1355.7" r="31.5"/><path fill="#FFF" d="M396.25-1338.85c-11.68 0-21.57-6.82-24.82-12.77l-.87-1.6 2.97-.95c-.35-3.93-.57-15.61 8.43-19.6 5.77-2.55 11.97-2.28 16.58.74 3.67 2.4 8.03 7.61 7.979 18.81 0 .46-.21.87-.529 1.14l1.37 1.19c.409.36 3.97 3.58 3.02 7.15-.69 2.61-3.42 4.35-8.32 5.33-1.98.38-3.92.56-5.81.56zm-21.16-12.67c4.23 5.57 14.92 11.42 26.37 9.14 3.51-.7 5.65-1.81 6-3.14.25-.91-.33-2.01-.97-2.87-5.9 6.51-19.78 2.44-20.41 2.25a1.5 1.5 0 0 1-1.01-1.87c.24-.79 1.08-1.25 1.87-1.01.14.04 14.35 4.2 18.1-2.48l.86-1.53a1.507 1.507 0 0 1-2.41-1.21c.029-7.79-2.25-13.42-6.61-16.27-3.75-2.45-8.88-2.64-13.71-.5-8.54 3.78-6.54 17.53-6.52 17.67l.19 1.27-1.75.55z"/><path fill="#FFF" d="M386.78-1360.39c-.56 0-1.1-.31-1.36-.85-2.27-4.7-6.22-8.64-6.26-8.68-.59-.58-.6-1.54-.01-2.13.58-.59 1.54-.6 2.13-.01.18.18 4.36 4.35 6.86 9.51a1.504 1.504 0 0 1-1.36 2.16zM393.32-1360.39c-.71 0-1.34-.5-1.47-1.22-.93-4.81-6.65-10.33-6.71-10.39-.6-.57-.62-1.53-.05-2.13.57-.6 1.53-.62 2.13-.05.26.25 6.47 6.25 7.58 11.99.16.81-.38 1.6-1.19 1.76-.1.03-.19.04-.29.04zM398.4-1362.2c-.71 0-1.341-.5-1.48-1.229-.84-4.521-5.02-8.521-5.06-8.561-.6-.57-.63-1.52-.06-2.13.57-.6 1.52-.63 2.13-.06.2.19 4.93 4.7 5.959 10.2.15.82-.39 1.6-1.199 1.75-.11.02-.2.03-.29.03z"/><g><circle fill="#78BD43" cx="327.89" cy="-1355.7" r="31.5"/><path fill="#FFF" d="M335.95-1364.61s8.84-4.81 2.55-9.16c-5.73-3.96-9.52 9.08-9.52 9.08h-.66s-3.54-13.88-9.63-9.08c-5.31 4.19 2.86 9.08 2.86 9.08H306.3v9.89h3.72v16.189h35.58v-16.189h3.91v-9.8l-13.56-.01zm1.73-6.73c3.69 2.71-6.24 6.01-6.24 6.01s2.55-8.72 6.24-6.01zm-18.27.33c2.71-4.19 6.36 5.67 6.36 5.67s-8.33-2.62-6.36-5.67zm7.52 30.29h-14.57v-14.09h14.57v14.09zm16.5 0h-14.11v-14.09h14.11v14.09zm4.02-16.33h-38.83v-5.01h38.83v5.01z"/></g><g><circle fill="#642667" cx="264.89" cy="-1355.7" r="31.5"/><path fill="#FFF" d="M264.87-1336.56l-17.33-7.02v-29.35l17.22 6.78 17.44-6.77v29.34l-17.33 7.02zm-14.32-9.04l14.32 5.8 14.32-5.8v-22.92l-14.44 5.6-14.2-5.59v22.91z"/><path fill="#FFF" d="M260.32-1358.31v-3.3l-6.97-2.67-.02 3.22zM260.32-1351.67v-3.29l-6.97-2.68-.02 3.23zM260.32-1345.02v-3.3l-6.97-2.67-.02 3.22zM269.03-1358.31v-3.3l6.97-2.67.02 3.22zM269.03-1351.67v-3.29l6.97-2.68.02 3.23zM269.03-1345.02v-3.3l6.97-2.67.02 3.22zM263.26-1364.53h3.01v26.36h-3.01z"/></g><g><circle fill="#C4197F" cx="201.89" cy="-1355.7" r="31.5"/><path fill="#FFF" d="M217.14-1339.09h-30.51v-31.66h30.51v31.66zm-27.77-2.86h25.03v-25.95h-25.03v25.95z"/><path fill="#FFF" d="M187.67-1361.9h28.31v2.86h-28.31zM200.16-1353.51l-1.79.42-.56-2.27 3.1-.88h2.13v10.67h-2.89v-7.94h.01z"/></g><g><circle fill="#EB8B23" cx="138.88" cy="-1355.7" r="31.5"/><path fill="none" stroke="#FFF" stroke-width="3" stroke-miterlimit="10" d="M128.63-1373.49s-3.53 1.521-5.99 5.72c0 0-.08 8.68 10.52 18.42 10.59 9.73 17.69 9.73 17.69 9.73s3.97-2.73 5.41-6.25l-8.13-6.08-5.13 2.51-10.64-10.5 2.35-5.04-6.08-8.51z"/></g><g><circle fill="#642667" cx="75.88" cy="-1355.7" r="31.5"/><path fill="#FFF" d="M70.96-1376.8c-2.48 2.479-2.48 6.51 0 8.99s6.51 2.48 8.99 0 2.48-6.51 0-8.99c-2.48-2.48-6.5-2.48-8.99 0zm7.06 7.05a3.615 3.615 0 0 1-5.11 0 3.615 3.615 0 0 1 0-5.11 3.615 3.615 0 0 1 5.11 0 3.615 3.615 0 0 1 0 5.11zm-6.87 1.94l-3.47 7.82h15.63l-3.58-7.82-2.21 1.58 1.6 3.52-7.16-.06 1.65-3.51M82.22-1354.73c-2.48 2.48-2.48 6.51 0 9a6.374 6.374 0 0 0 9 0c2.48-2.48 2.48-6.51 0-9-2.49-2.48-6.52-2.48-9 0zm7.05 7.06a3.615 3.615 0 0 1-5.11 0 3.627 3.627 0 0 1 0-5.12 3.627 3.627 0 0 1 5.12 0 3.618 3.618 0 0 1-.01 5.12zm-6.86 1.94l-3.47 7.82h15.63l-3.57-7.82-2.21 1.58 1.6 3.52-7.16-.06 1.65-3.51M59.78-1354.73c-2.48 2.48-2.48 6.51 0 9s6.51 2.48 9 0c2.48-2.48 2.48-6.51 0-9-2.48-2.48-6.51-2.48-9 0zm7.06 7.06c-1.41 1.41-3.7 1.41-5.11 0s-1.41-3.7 0-5.12a3.627 3.627 0 0 1 5.12 0c1.4 1.42 1.4 3.71-.01 5.12zm-6.87 1.94l-3.47 7.82h15.63l-3.58-7.82-2.21 1.58 1.6 3.52-7.16-.06 1.65-3.51"/></g><g><circle fill="#DEB209" cx="12.9" cy="-1355.7" r="31.5"/><path fill="#FFF" d="M-.34-1340.27v-30.85H26.5v30.82l-13.6-7.34-13.24 7.37zm13.24-10.45l10.67 5.76v-23.31H2.59v23.29l10.31-5.74z"/></g><g><circle fill="#C4197F" cx="913.578" cy="31.5" r="31.5"/><path fill="#FFF" d="M905.309 23.35c-4.531 4.53-4.531 11.871 0 16.39 4.529 4.53 11.869 4.53 16.4 0 4.529-4.53 4.529-11.87 0-16.39-4.531-4.53-11.871-4.53-16.4 0zm14.4 14.39c-3.42 3.42-8.971 3.42-12.391 0s-3.42-8.97 0-12.39 8.971-3.42 12.4 0c3.411 3.42 3.411 8.97-.009 12.39z"/><path fill="#FFF" d="M906.536 22.366l-2.283 2.285-7.928-7.925 2.283-2.284z"/><path fill="#FFF" d="M897.598 21.52h-3.229l-.101-9.21 3.33 3.14z"/><path fill="#FFF" d="M903.588 12.29v3.24h-6.061l-3.259-3.22zM920.619 40.645l2.285-2.285 7.926 7.93-2.286 2.284z"/><path fill="#FFF" d="M929.559 41.49h3.23l.1 9.21-3.33-3.139z"/><path fill="#FFF" d="M923.568 50.71v-3.23h6.061l3.26 3.22zM904.307 38.573l2.283 2.285-7.93 7.924-2.284-2.285z"/><path fill="#FFF" d="M903.588 47.48v3.23l-9.209.101 3.148-3.331z"/><path fill="#FFF" d="M894.369 41.49h3.229v6.071l-3.219 3.25zM922.745 24.585l-2.283-2.284 7.929-7.924 2.283 2.284z"/><path fill="#FFF" d="M923.568 15.53v-3.24l9.209-.09-3.148 3.33z"/><path fill="#FFF" d="M932.789 21.52h-3.23v-6.07l3.218-3.25z"/></g><g><circle fill="#C4197F" cx="2109.487" cy="31.5" r="31.5"/><g fill="#FFF"><path d="M2103.053 21.145c-4.531 4.53-4.531 11.871 0 16.39 4.529 4.53 11.869 4.53 16.4 0 4.529-4.53 4.529-11.87 0-16.39-4.531-4.53-11.871-4.53-16.4 0zm14.4 14.39c-3.42 3.42-8.971 3.42-12.391 0s-3.42-8.97 0-12.39 8.971-3.42 12.4 0c3.411 3.42 3.411 8.97-.009 12.39z"/><path d="M2102.046 36.357l2.283 2.285-7.93 7.924-2.284-2.285z"/></g></g><g><circle fill="#78BC43" cx="2172.487" cy="31.5" r="31.5"/><g fill="#FFF"><path d="M2166.053 21.145c-4.531 4.53-4.531 11.871 0 16.39 4.529 4.53 11.869 4.53 16.4 0 4.529-4.53 4.529-11.87 0-16.39-4.531-4.53-11.871-4.53-16.4 0zm14.4 14.39c-3.42 3.42-8.971 3.42-12.391 0s-3.42-8.97 0-12.39 8.971-3.42 12.4 0c3.411 3.42 3.411 8.97-.009 12.39z"/><path d="M2165.046 36.357l2.282 2.285-7.93 7.924-2.283-2.285z"/></g></g><g><circle fill="#EA8A23" cx="2235.487" cy="31.5" r="31.5"/><g fill="#FFF"><path d="M2229.053 21.145c-4.531 4.53-4.531 11.871 0 16.39 4.529 4.53 11.869 4.53 16.4 0 4.529-4.53 4.529-11.87 0-16.39-4.531-4.53-11.871-4.53-16.4 0zm14.4 14.39c-3.42 3.42-8.971 3.42-12.391 0s-3.42-8.97 0-12.39 8.971-3.42 12.4 0c3.411 3.42 3.411 8.97-.009 12.39z"/><path d="M2228.045 36.356l2.283 2.285-7.93 7.924-2.283-2.285z"/></g></g><g><circle fill="#78BC43" cx="976.578" cy="31.5" r="31.5"/><path fill="#FFF" d="M968.309 23.35c-4.531 4.53-4.531 11.871 0 16.39 4.529 4.53 11.869 4.53 16.4 0 4.529-4.53 4.529-11.87 0-16.39-4.531-4.53-11.871-4.53-16.4 0zm14.4 14.39c-3.42 3.42-8.971 3.42-12.391 0s-3.42-8.97 0-12.39 8.971-3.42 12.4 0c3.411 3.42 3.411 8.97-.009 12.39z"/><path fill="#FFF" d="M969.533 22.369l-2.283 2.285-7.928-7.925 2.283-2.285z"/><path fill="#FFF" d="M960.598 21.52h-3.229l-.101-9.21 3.33 3.14z"/><path fill="#FFF" d="M966.588 12.29v3.24h-6.061l-3.259-3.22zM983.621 40.642l2.286-2.284 7.925 7.928-2.285 2.285z"/><path fill="#FFF" d="M992.559 41.49h3.23l.1 9.21-3.33-3.139z"/><path fill="#FFF" d="M986.568 50.71v-3.23h6.061l3.26 3.22zM967.307 38.573l2.283 2.285-7.931 7.924-2.283-2.285z"/><path fill="#FFF" d="M966.588 47.48v3.23l-9.209.101 3.148-3.331z"/><path fill="#FFF" d="M957.369 41.49h3.229v6.071l-3.219 3.25zM985.744 24.588l-2.283-2.285 7.928-7.924 2.284 2.284z"/><path fill="#FFF" d="M986.568 15.53v-3.24l9.209-.09-3.148 3.33z"/><path fill="#FFF" d="M995.789 21.52h-3.23v-6.07l3.218-3.25z"/></g><g><circle fill="#00B2DE" cx="1039.578" cy="31.5" r="31.5"/><path fill="#FFF" d="M1031.309 23.35c-4.531 4.53-4.531 11.871 0 16.39 4.529 4.53 11.869 4.53 16.4 0 4.529-4.53 4.529-11.87 0-16.39-4.531-4.53-11.871-4.53-16.4 0zm14.4 14.39c-3.42 3.42-8.971 3.42-12.391 0s-3.42-8.97 0-12.39 8.971-3.42 12.4 0c3.411 3.42 3.411 8.97-.009 12.39z"/><path fill="#FFF" d="M1032.53 22.372l-2.283 2.284-7.928-7.924 2.284-2.285z"/><path fill="#FFF" d="M1023.598 21.52h-3.229l-.101-9.21 3.33 3.14z"/><path fill="#FFF" d="M1029.588 12.29v3.24h-6.061l-3.259-3.22zM1046.624 40.64l2.285-2.285 7.926 7.929-2.285 2.284z"/><path fill="#FFF" d="M1055.559 41.49h3.23l.1 9.21-3.33-3.139z"/><path fill="#FFF" d="M1049.568 50.71v-3.23h6.061l3.26 3.22zM1030.306 38.572l2.283 2.285-7.93 7.924-2.283-2.285z"/><path fill="#FFF" d="M1029.588 47.48v3.23l-9.209.101 3.148-3.331z"/><path fill="#FFF" d="M1020.369 41.49h3.229v6.071l-3.219 3.25zM1048.743 24.59l-2.284-2.285 7.93-7.924 2.283 2.284z"/><path fill="#FFF" d="M1049.568 15.53v-3.24l9.209-.09-3.148 3.33z"/><path fill="#FFF" d="M1058.789 21.52h-3.23v-6.07l3.218-3.25z"/></g><g><circle fill="#00B2DE" cx="1857.625" cy="31.5" r="31.5"/><defs><circle id="a" cx="1857.625" cy="31.5" r="31.577"/></defs><clipPath id="b"><use xlink:href="#a" overflow="visible"/></clipPath><g clip-path="url(#b)"><path fill="#FFF" d="M1830.944 54.948l-1.813-1.51 15.069-18.089 7.404 6.17 19.678-23.621 1.812 1.51-21.188 25.434-7.404-6.17zM1838.348 61.116l-1.813-1.51 8.515-10.221 6.942 5.783 12.352-14.827 1.813 1.511-13.862 16.638-6.941-5.783zM1842.552 22.288l1.813 1.51-20.87 25.05-1.813-1.51z"/><path fill="#FFF" d="M1853.427 24.291l1.813 1.511-24.34 29.214-1.813-1.51zM1871.434 19.56a4.458 4.458 0 0 1-.572-6.271 4.458 4.458 0 0 1 6.272-.571 4.455 4.455 0 0 1 .57 6.271 4.458 4.458 0 0 1-6.27.571zm4.189-5.031a2.096 2.096 0 0 0-2.948.269 2.096 2.096 0 0 0 .27 2.949 2.095 2.095 0 0 0 2.948-.269 2.097 2.097 0 0 0-.27-2.949zM1864.595 41.884a4.458 4.458 0 0 1-.571-6.272 4.458 4.458 0 0 1 6.271-.572 4.46 4.46 0 0 1 .571 6.273 4.46 4.46 0 0 1-6.271.571zm4.19-5.03a2.094 2.094 0 0 0-2.949.269 2.093 2.093 0 1 0 2.949-.269z"/><path fill="#FFF" d="M1853.499 26.028a4.458 4.458 0 0 1-.571-6.271 4.462 4.462 0 0 1 6.274-.571 4.456 4.456 0 0 1 .57 6.271 4.46 4.46 0 0 1-6.273.571zm4.191-5.029a2.096 2.096 0 0 0-2.948.268 2.095 2.095 0 0 0 .269 2.949 2.096 2.096 0 0 0 2.948-.268 2.096 2.096 0 0 0-.269-2.949zM1842.845 23.763a4.456 4.456 0 0 1-.572-6.271 4.458 4.458 0 0 1 6.272-.571 4.458 4.458 0 0 1 .572 6.271 4.458 4.458 0 0 1-6.272.571zm4.19-5.03a2.094 2.094 0 1 0 .268 2.95 2.098 2.098 0 0 0-.268-2.95z"/></g></g><g><circle fill="#00B2DE" cx="850.578" cy="31.5" r="31.5"/><path fill="#FFF" d="M857.639 35.01c-1.461 2.57-4.211 4.311-7.381 4.311-4.68 0-8.48-3.8-8.48-8.48 0-2.77 1.33-5.21 3.381-6.76l-2.211-2.63c-2.799 2.18-4.6 5.57-4.6 9.39 0 6.58 5.33 11.91 11.91 11.91 5.111 0 9.451-3.22 11.15-7.74h-3.769v-.001z"/><path fill="#FFF" d="M851.843 25.708l-2.89 2.632-10.274-11.284 2.89-2.632zM866.224 32.1l.01 3.91-15.27.037-.01-3.91zM840.396 13.325l-2.89 2.633-2.653-2.913 2.89-2.633zM850.119 45.57c3.189 0 5.969 1.77 7.42 4.38h3.76c-1.67-4.55-6.041-7.81-11.17-7.81-5.111 0-9.451 3.22-11.15 7.739h3.77a8.427 8.427 0 0 1 7.37-4.309z"/></g><g><circle fill="#EA8A23" cx="787.578" cy="31.5" r="31.5"/><path fill="none" stroke="#FFF" stroke-width="2.5" stroke-miterlimit="10" d="M799.607 44.301V16.95c0-2.84-2.299-5.14-5.139-5.14h-22.6c2.84 0 5.139 2.3 5.139 5.14v27.351a5.14 5.14 0 0 0 5.141 5.14"/><path fill="none" stroke="#FFF" stroke-width="2.5" stroke-miterlimit="10" d="M771.857 11.81c-2.84 0-5.139 2.3-5.139 5.14h10.27M804.738 49.44c2.84 0 5.141-2.3 5.141-5.13h-22.602c0 2.84-2.299 5.14-5.139 5.14h22.6v-.01zM781.369 19.91h13.979M781.369 25.78h13.979M781.369 31.64h13.979M781.369 37.5h13.979"/></g><g><circle fill="#C4197F" cx="1605.826" cy="31.5" r="31.5"/><path fill="none" stroke="#FFF" stroke-width="2.5" stroke-miterlimit="10" d="M1617.855 44.301V16.95c0-2.84-2.299-5.14-5.139-5.14h-22.6c2.84 0 5.139 2.3 5.139 5.14v27.351a5.138 5.138 0 0 0 5.141 5.139"/><path fill="none" stroke="#FFF" stroke-width="2.5" stroke-miterlimit="10" d="M1590.105 11.81c-2.84 0-5.139 2.3-5.139 5.14h10.27M1622.986 49.439a5.136 5.136 0 0 0 5.141-5.129h-22.602a5.137 5.137 0 0 1-5.139 5.139h22.6v-.01zM1599.617 19.91h13.979M1599.617 25.78h13.979M1599.617 31.64h13.979M1599.617 37.5h13.979"/></g><g><circle fill="#78BC43" cx="1668.826" cy="31.5" r="31.5"/><path fill="none" stroke="#FFF" stroke-width="2.5" stroke-miterlimit="10" d="M1680.855 44.301V16.95c0-2.84-2.299-5.14-5.139-5.14h-22.6c2.84 0 5.139 2.3 5.139 5.14v27.351a5.138 5.138 0 0 0 5.141 5.139"/><path fill="none" stroke="#FFF" stroke-width="2.5" stroke-miterlimit="10" d="M1653.105 11.81c-2.84 0-5.139 2.3-5.139 5.14h10.27M1685.986 49.439a5.136 5.136 0 0 0 5.141-5.129h-22.602a5.137 5.137 0 0 1-5.139 5.139h22.6v-.01zM1662.617 19.91h13.979M1662.617 25.78h13.979M1662.617 31.64h13.979M1662.617 37.5h13.979"/></g><g><circle fill="#78BC43" cx="1794.625" cy="31.5" r="31.5"/><path fill="#FFF" d="M1805.571 37.487l-32.504-.048v-1.946h32.569l10.548-10.372v2.149z"/><path fill="#FFF" d="M1805.571 41.37h-32.504v-1.946h32.504l10.613-9.973v2.059z"/><g fill="#FFF"><path d="M1792.894 28.718l-1.23 1.467c.555-.074.99-.294 1.307-.671l.018-.021c.288-.345.295-.565-.095-.775zM1793.34 26.151c-.281.335-.311.545.09.754l1.196-1.425c-.565.063-.986.314-1.268.65l-.018.021z"/><path d="M1783.4 22.845l-10.333 10.612h32.546l10.57-10.617-32.783.005zm12.891 3.449a1.519 1.519 0 0 0-.781-.618l-1.336 1.592c1.232.43 1.376 1.069.392 2.242l-.018.021c-.984 1.173-2.518 1.928-3.952 2.064l-.87 1.037h-1.089l.887-1.058c-.804-.115-1.385-.471-1.638-.994l1.82-1.195c.205.431.482.724.995.849l1.397-1.666c-1.166-.408-1.435-.974-.389-2.22l.018-.021c.967-1.153 2.489-1.918 3.923-2.054l.51-.608h1.09l-.536.639c.664.094 1.064.367 1.306.765l-1.729 1.225z"/></g></g><g><circle fill="#EA8A23" cx="724.578" cy="31.5" r="31.5"/><path fill="#FFF" d="M724.578 50.26l-17.33-7.02V13.89l17.221 6.78 17.439-6.77v29.34l-17.33 7.02zm-14.32-9.05l14.32 5.8 14.32-5.8V18.29l-14.43 5.6-14.201-5.59-.009 22.91z"/><path fill="#FFF" d="M722.959 22.28h3.01v26.36h-3.01zM720.008 28.89v-3.3l-6.969-2.67-.021 3.22zM720.008 35.53v-3.29l-6.969-2.68-.021 3.23zM720.008 42.18v-3.299l-6.969-2.671-.021 3.22zM728.719 28.89v-3.3l6.969-2.67.031 3.22zM728.719 35.53v-3.29l6.969-2.68.031 3.23zM728.719 42.18v-3.299l6.969-2.671.031 3.22z"/></g><g><circle fill="#C4197F" cx="2550.487" cy="31.5" r="31.5"/><path fill="#FFF" d="M2550.487 50.26l-17.33-7.02V13.89l17.221 6.78 17.439-6.77v29.34l-17.33 7.02zm-14.32-9.05l14.32 5.8 14.32-5.8V18.29l-14.43 5.6-14.201-5.59-.009 22.91z"/><path fill="#FFF" d="M2548.868 22.28h3.01v26.36h-3.01zM2545.917 28.89v-3.3l-6.969-2.67-.021 3.22zM2545.917 35.53v-3.29l-6.969-2.68-.021 3.23zM2545.917 42.18v-3.299l-6.969-2.671-.021 3.22zM2554.628 28.89v-3.3l6.969-2.67.031 3.22zM2554.628 35.53v-3.29l6.969-2.68.031 3.23zM2554.628 42.18v-3.299l6.969-2.671.031 3.22z"/></g><g><circle fill="#00B2DE" cx="2613.487" cy="31.5" r="31.5"/><path fill="#FFF" d="M2613.487 50.26l-17.33-7.02V13.89l17.221 6.78 17.439-6.77v29.34l-17.33 7.02zm-14.32-9.05l14.32 5.8 14.32-5.8V18.29l-14.43 5.6-14.201-5.59-.009 22.91z"/><path fill="#FFF" d="M2611.868 22.28h3.01v26.36h-3.01zM2608.917 28.89v-3.3l-6.969-2.67-.021 3.22zM2608.917 35.53v-3.29l-6.969-2.68-.021 3.23zM2608.917 42.18v-3.299l-6.969-2.671-.021 3.22zM2617.628 28.89v-3.3l6.969-2.67.031 3.22zM2617.628 35.53v-3.29l6.969-2.68.031 3.23zM2617.628 42.18v-3.299l6.969-2.671.031 3.22z"/></g><g><circle fill="#78BC43" cx="661.568" cy="31.5" r="31.5"/><path fill="#FFF" d="M656.648 10.4c-2.48 2.479-2.48 6.51 0 8.99s6.51 2.48 8.99 0a6.343 6.343 0 0 0 0-8.99 6.343 6.343 0 0 0-8.99 0zm7.061 7.05c-1.41 1.41-3.701 1.41-5.111 0s-1.41-3.7 0-5.11a3.616 3.616 0 0 1 5.111 0 3.615 3.615 0 0 1 0 5.11zm-6.871 1.94l-3.469 7.82h15.629l-3.58-7.82-2.209 1.58 1.6 3.52-7.16-.06 1.65-3.51M667.908 32.471c-2.48 2.479-2.48 6.51 0 9a6.363 6.363 0 0 0 8.99 0c2.48-2.48 2.48-6.511 0-9a6.36 6.36 0 0 0-8.99 0zm7.061 7.059c-1.41 1.41-3.701 1.41-5.111 0s-1.41-3.7 0-5.12a3.629 3.629 0 0 1 5.121 0c1.4 1.42 1.4 3.71-.01 5.12zm-6.871 1.941l-3.469 7.819h15.629l-3.58-7.819-2.209 1.58 1.6 3.52-7.16-.061 1.65-3.51M645.469 32.471c-2.48 2.479-2.48 6.51 0 9 2.479 2.479 6.51 2.479 9 0 2.479-2.48 2.479-6.511 0-9-2.481-2.481-6.51-2.481-9 0zm7.058 7.059c-1.408 1.41-3.699 1.41-5.109 0s-1.41-3.7 0-5.12a3.614 3.614 0 0 1 5.109 0 3.626 3.626 0 0 1 0 5.12zm-6.859 1.941l-3.471 7.819h15.631l-3.58-7.819-2.209 1.58 1.6 3.52-7.16-.061 1.65-3.51"/></g><g><circle fill="#78BC43" cx="598.568" cy="31.5" r="31.5"/><path fill="#FFF" d="M590.188 14.61v12.48h16.471V14.61h-16.471zm13.74 10.07h-11.01v-7.65h11.01v7.65zM575.938 32.77v12.48h16.471V32.77h-16.471zm13.74 10.06h-11.01v-7.65h11.01v7.65zM604.488 32.77v12.48h16.471V32.77h-16.471zm13.741 10.06h-11.01v-7.65h11.01v7.65zM597.129 27.09h2.6v13.22h-2.6z"/><path fill="#FFF" d="M590.338 37.71h16.17v2.601h-16.17z"/></g><g><circle fill="#EA8A23" cx="535.568" cy="31.5" r="31.5"/><path fill="#FFF" d="M526.107 14.98h3.012V53.3h-3.012z"/><path fill="#FFF" d="M533.309 26.73h-11.291V14.98h3.009v8.74h5.272v-8.74h3.01zM545.688 53.36h-8.189V15.8l8.189-2.97v40.53zm-5.19-3.01h2.18V17.12l-2.18.79v32.44z"/><path fill="#FFF" d="M538.998 33.051h5.18v3.01h-5.18z"/></g><g><circle fill="#EA8A23" cx="2298.487" cy="31.781" r="31.5"/><g fill="#FFF"><path d="M2285.284 30.196h26.405v3.17h-26.405z"/><path d="M2296.9 18.579h3.171v26.405h-3.171z"/></g></g><g><circle fill="#00B2DE" cx="2361.487" cy="31.781" r="31.5"/><g fill="#FFF"><path d="M2348.283 30.195h26.407v3.171h-26.407z"/><path d="M2359.9 18.578h3.172v26.407h-3.172z"/></g></g><g><circle fill="#C4197F" cx="2424.487" cy="31.781" r="31.5"/><g fill="#FFF"><path d="M2411.284 30.196h26.405v3.17h-26.405z"/><path d="M2422.9 18.579h3.171v26.405h-3.171z"/></g></g><g><circle fill="#78BC43" cx="2487.487" cy="31.781" r="31.5"/><g fill="#FFF"><path d="M2474.284 30.196h26.405v3.17h-26.405z"/><path d="M2485.9 18.579h3.171v26.405h-3.171z"/></g></g><g><circle fill="#642667" cx="1983.522" cy="31.5" r="31.5"/><path fill="#FFF" d="M1996.729 38.889l-8.265 2.756-20.704-29.572 3.277-2.608 25.692 29.424zm-7.223-.76l2.2-.733-20.986-25.769-.924.732 19.71 25.77zM1989.462 55.021c-1.581 0-3.256-.197-4.98-.586l-3.081-.695 2.725-1.597c.107-.064 2.771-1.703 3.589-5.423.664-3.022 3.303-5.217 6.273-5.217 1.942 0 3.729.932 5.032 2.625 1.391 1.81 1.627 3.992.645 5.987-1.491 3.028-5.4 4.906-10.203 4.906zm-1.922-2.598c.657.07 1.299.104 1.922.104 4.602 0 7.167-1.893 7.965-3.513.555-1.127.418-2.322-.384-3.365-.832-1.081-1.889-1.651-3.056-1.651-1.81 0-3.423 1.37-3.838 3.257a11.51 11.51 0 0 1-2.609 5.168z"/></g><g><circle fill="#C4197F" cx="2046.522" cy="31.5" r="31.5"/><path fill="#FFF" d="M2059.729 38.889l-8.265 2.756-20.704-29.572 3.277-2.608 25.692 29.424zm-7.223-.76l2.2-.733-20.986-25.769-.924.732 19.71 25.77zM2052.462 55.021c-1.581 0-3.256-.197-4.98-.586l-3.081-.695 2.725-1.597c.107-.064 2.771-1.703 3.589-5.423.664-3.022 3.303-5.217 6.273-5.217 1.942 0 3.729.932 5.032 2.625 1.391 1.81 1.627 3.992.645 5.987-1.491 3.028-5.4 4.906-10.203 4.906zm-1.922-2.598c.657.07 1.299.104 1.922.104 4.602 0 7.167-1.893 7.965-3.513.555-1.127.418-2.322-.384-3.365-.832-1.081-1.889-1.651-3.056-1.651-1.81 0-3.423 1.37-3.838 3.257a11.51 11.51 0 0 1-2.609 5.168z"/></g><g><circle fill="#EA8A23" cx="472.568" cy="31.5" r="31.5"/><path fill="#FFF" d="M491.879 42.99h-38.611V19.63l19.3 15.58 19.311-15.58v23.36zm-36.351-2.26h34.091V24.37l-17.051 13.75-17.04-13.75v16.36z"/><path fill="#FFF" d="M453.258 19.63h38.611v2.65h-38.611z"/></g><g><circle fill="#DCB226" cx="409.568" cy="31.5" r="31.5"/><path fill="#FFF" d="M414.928 48.35c-11.68 0-21.57-6.819-24.82-12.77l-.87-1.6 2.97-.95c-.35-3.93-.57-15.61 8.43-19.6 5.77-2.55 11.97-2.28 16.58.74 3.67 2.4 8.03 7.61 7.979 18.81 0 .46-.21.87-.529 1.14l1.37 1.19c.409.359 3.97 3.58 3.02 7.15-.69 2.609-3.42 4.35-8.32 5.329-1.98.381-3.92.561-5.81.561zm-21.16-12.67c4.23 5.57 14.92 11.42 26.37 9.141 3.51-.7 5.65-1.811 6-3.141.25-.91-.33-2.01-.97-2.869-5.9 6.51-19.78 2.439-20.41 2.25a1.5 1.5 0 0 1-1.01-1.87 1.51 1.51 0 0 1 1.87-1.011c.14.041 14.35 4.2 18.1-2.479l.86-1.53a1.507 1.507 0 0 1-2.41-1.21c.029-7.79-2.25-13.42-6.61-16.27-3.75-2.45-8.88-2.64-13.71-.5-8.54 3.78-6.54 17.53-6.52 17.67l.19 1.271-1.75.548z"/><path fill="#FFF" d="M405.458 26.81c-.56 0-1.1-.31-1.36-.85-2.27-4.7-6.22-8.64-6.26-8.68-.59-.58-.6-1.54-.01-2.13.58-.59 1.54-.6 2.13-.01.18.18 4.36 4.35 6.86 9.51a1.504 1.504 0 0 1-1.36 2.16zM411.998 26.81c-.71 0-1.34-.5-1.47-1.22-.93-4.81-6.65-10.33-6.71-10.39-.6-.57-.62-1.53-.05-2.13.57-.6 1.53-.62 2.13-.05.26.25 6.47 6.25 7.58 11.99.16.81-.38 1.6-1.19 1.76-.1.03-.19.04-.29.04zM417.079 25c-.71 0-1.341-.5-1.48-1.229-.84-4.521-5.02-8.521-5.06-8.561-.6-.57-.63-1.52-.06-2.13.57-.6 1.52-.63 2.13-.06.2.19 4.93 4.7 5.959 10.2.15.82-.39 1.6-1.199 1.75-.111.02-.201.03-.29.03z"/></g><g><circle fill="#EA8A23" cx="1102.634" cy="31.5" r="31.5"/><path fill="#FFF" d="M1107.994 48.35c-11.681 0-21.57-6.82-24.82-12.77l-.87-1.6 2.97-.951c-.35-3.929-.57-15.609 8.43-19.599 5.771-2.55 11.971-2.28 16.58.74 3.67 2.4 8.031 7.61 7.98 18.81 0 .459-.211.869-.529 1.139l1.369 1.191c.41.359 3.971 3.58 3.02 7.15-.689 2.609-3.42 4.35-8.32 5.328-1.98.382-3.921.562-5.81.562zm-21.16-12.67c4.229 5.57 14.92 11.42 26.369 9.141 3.51-.701 5.65-1.811 6-3.141.25-.91-.33-2.01-.969-2.869-5.9 6.51-19.781 2.439-20.41 2.25a1.502 1.502 0 0 1-1.011-1.871 1.51 1.51 0 0 1 1.87-1.01c.141.041 14.35 4.199 18.1-2.48l.861-1.529a1.508 1.508 0 0 1-2.41-1.211c.029-7.789-2.25-13.419-6.611-16.269-3.75-2.45-8.879-2.64-13.709-.5-8.541 3.78-6.541 17.53-6.521 17.669l.19 1.271-1.749.549z"/><path fill="#FFF" d="M1098.523 26.81c-.56 0-1.1-.31-1.359-.85-2.271-4.7-6.221-8.64-6.26-8.68a1.502 1.502 0 0 1-.011-2.13c.58-.59 1.54-.6 2.13-.01.18.18 4.36 4.35 6.86 9.51a1.504 1.504 0 0 1-1.36 2.16zM1105.063 26.81c-.71 0-1.34-.5-1.47-1.22-.93-4.81-6.65-10.33-6.71-10.39a1.511 1.511 0 0 1-.05-2.13c.57-.6 1.529-.62 2.13-.05.26.25 6.47 6.25 7.579 11.99.16.81-.379 1.6-1.189 1.76a.958.958 0 0 1-.29.04zM1110.145 25c-.711 0-1.342-.5-1.48-1.229-.84-4.521-5.021-8.521-5.061-8.561-.6-.57-.63-1.52-.061-2.13.57-.6 1.521-.63 2.131-.06.199.19 4.93 4.7 5.959 10.2a1.5 1.5 0 0 1-1.199 1.75c-.11.02-.2.03-.289.03z"/></g><g><circle fill="#78BC43" cx="1165.633" cy="31.5" r="31.5"/><path fill="#FFF" d="M1170.993 48.35c-11.681 0-21.57-6.82-24.82-12.77l-.87-1.6 2.97-.951c-.35-3.929-.57-15.609 8.43-19.599 5.771-2.55 11.971-2.28 16.58.74 3.67 2.4 8.031 7.61 7.98 18.81 0 .459-.211.869-.529 1.139l1.369 1.191c.41.359 3.971 3.58 3.02 7.15-.689 2.609-3.42 4.35-8.32 5.328-1.98.382-3.921.562-5.81.562zm-21.16-12.67c4.229 5.57 14.92 11.42 26.369 9.141 3.51-.701 5.65-1.811 6-3.141.25-.91-.33-2.01-.969-2.869-5.9 6.51-19.781 2.439-20.41 2.25a1.502 1.502 0 0 1-1.011-1.871 1.51 1.51 0 0 1 1.87-1.01c.141.041 14.35 4.199 18.1-2.48l.861-1.529a1.508 1.508 0 0 1-2.41-1.211c.029-7.789-2.25-13.419-6.611-16.269-3.75-2.45-8.879-2.64-13.709-.5-8.541 3.78-6.541 17.53-6.521 17.669l.19 1.271-1.749.549z"/><path fill="#FFF" d="M1161.522 26.81c-.56 0-1.1-.31-1.359-.85-2.271-4.7-6.221-8.64-6.26-8.68a1.502 1.502 0 0 1-.011-2.13c.58-.59 1.54-.6 2.13-.01.18.18 4.36 4.35 6.86 9.51a1.504 1.504 0 0 1-1.36 2.16zM1168.062 26.81c-.71 0-1.34-.5-1.47-1.22-.93-4.81-6.65-10.33-6.71-10.39a1.511 1.511 0 0 1-.05-2.13c.57-.6 1.529-.62 2.13-.05.26.25 6.47 6.25 7.579 11.99.16.81-.379 1.6-1.189 1.76a.958.958 0 0 1-.29.04zM1173.144 25c-.711 0-1.342-.5-1.48-1.229-.84-4.521-5.021-8.521-5.061-8.561-.6-.57-.63-1.52-.061-2.13.57-.6 1.521-.63 2.131-.06.199.19 4.93 4.7 5.959 10.2a1.5 1.5 0 0 1-1.199 1.75c-.11.02-.2.03-.289.03z"/></g><g><circle fill="#C4197F" cx="1228.632" cy="31.5" r="31.5"/><path fill="#FFF" d="M1233.992 48.35c-11.681 0-21.57-6.82-24.82-12.77l-.87-1.6 2.97-.951c-.35-3.929-.57-15.609 8.43-19.599 5.771-2.55 11.971-2.28 16.58.74 3.67 2.4 8.031 7.61 7.98 18.81 0 .459-.211.869-.529 1.139l1.369 1.191c.41.359 3.971 3.58 3.02 7.15-.689 2.609-3.42 4.35-8.32 5.328-1.98.382-3.921.562-5.81.562zm-21.16-12.67c4.229 5.57 14.92 11.42 26.369 9.141 3.51-.701 5.65-1.811 6-3.141.25-.91-.33-2.01-.969-2.869-5.9 6.51-19.781 2.439-20.41 2.25a1.502 1.502 0 0 1-1.011-1.871 1.51 1.51 0 0 1 1.87-1.01c.141.041 14.35 4.199 18.1-2.48l.861-1.529a1.508 1.508 0 0 1-2.41-1.211c.029-7.789-2.25-13.419-6.611-16.269-3.75-2.45-8.879-2.64-13.709-.5-8.541 3.78-6.541 17.53-6.521 17.669l.19 1.271-1.749.549z"/><path fill="#FFF" d="M1224.521 26.81c-.56 0-1.1-.31-1.359-.85-2.271-4.7-6.221-8.64-6.26-8.68a1.502 1.502 0 0 1-.011-2.13c.58-.59 1.54-.6 2.13-.01.18.18 4.36 4.35 6.86 9.51a1.504 1.504 0 0 1-1.36 2.16zM1231.062 26.81c-.71 0-1.34-.5-1.47-1.22-.93-4.81-6.65-10.33-6.71-10.39a1.511 1.511 0 0 1-.05-2.13c.57-.6 1.529-.62 2.13-.05.26.25 6.47 6.25 7.579 11.99.16.81-.379 1.6-1.189 1.76-.1.03-.19.04-.29.04zM1236.143 25c-.711 0-1.342-.5-1.48-1.229-.84-4.521-5.021-8.521-5.061-8.561-.6-.57-.63-1.52-.061-2.13.57-.6 1.521-.63 2.131-.06.199.19 4.93 4.7 5.959 10.2a1.5 1.5 0 0 1-1.199 1.75c-.11.02-.2.03-.289.03z"/></g><g><circle fill="#78BC43" cx="346.568" cy="31.5" r="31.5"/><path fill="#FFF" d="M354.628 22.59s8.84-4.81 2.55-9.16c-5.73-3.96-9.52 9.08-9.52 9.08h-.66s-3.54-13.88-9.63-9.08c-5.31 4.19 2.86 9.08 2.86 9.08h-15.25v9.89h3.72v16.19h35.58V32.4h3.91v-9.8l-13.56-.01zm1.73-6.73c3.69 2.71-6.24 6.01-6.24 6.01s2.55-8.72 6.24-6.01zm-18.27.33c2.71-4.19 6.36 5.67 6.36 5.67s-8.33-2.62-6.36-5.67zm7.52 30.29h-14.57V32.39h14.57v14.09zm16.5 0h-14.11V32.39h14.11v14.09zm4.02-16.33h-38.83v-5.01h38.83v5.01z"/></g><g><circle fill="#642667" cx="283.568" cy="31.5" r="31.5"/><path fill="#FFF" d="M283.548 50.641l-17.33-7.021V14.27l17.22 6.78 17.44-6.77v29.34l-17.33 7.021zm-14.32-9.041l14.32 5.801 14.32-5.801V18.68l-14.44 5.6-14.2-5.59V41.6z"/><path fill="#FFF" d="M278.998 28.89v-3.3l-6.97-2.67-.02 3.22zM278.998 35.53v-3.29l-6.97-2.68-.02 3.23zM278.998 42.18v-3.299l-6.97-2.671-.02 3.22zM287.708 28.89v-3.3l6.97-2.67.02 3.22zM287.708 35.53v-3.29l6.97-2.68.02 3.23zM287.708 42.18v-3.299l6.97-2.671.02 3.22zM281.938 22.67h3.01v26.36h-3.01z"/></g><g><circle fill="#C4197F" cx="220.568" cy="31.5" r="31.5"/><path fill="#FFF" d="M235.818 48.11h-30.51V16.45h30.51v31.66zm-27.77-2.86h25.03V19.3h-25.03v25.95z"/><path fill="#FFF" d="M206.348 25.3h28.31v2.86h-28.31zM218.838 33.69l-1.79.42-.56-2.27 3.1-.88h2.13v10.671h-2.89v-7.94h.01z"/></g><g><circle fill="#EA8A23" cx="157.558" cy="31.5" r="31.5"/><path fill="none" stroke="#FFF" stroke-width="3" stroke-miterlimit="10" d="M147.308 13.71s-3.53 1.521-5.99 5.72c0 0-.08 8.68 10.52 18.419 10.59 9.73 17.69 9.73 17.69 9.73s3.97-2.73 5.41-6.25l-8.13-6.08-5.13 2.51-10.64-10.5 2.35-5.04-6.08-8.509z"/></g><g><circle fill="#642667" cx="94.558" cy="31.5" r="31.5"/><path fill="#FFF" d="M89.638 10.4c-2.48 2.479-2.48 6.51 0 8.99s6.51 2.48 8.99 0 2.48-6.51 0-8.99c-2.48-2.48-6.5-2.48-8.99 0zm7.06 7.05a3.615 3.615 0 0 1-5.11 0 3.615 3.615 0 0 1 0-5.11 3.615 3.615 0 0 1 5.11 0 3.615 3.615 0 0 1 0 5.11zm-6.87 1.94l-3.47 7.82h15.63l-3.58-7.82-2.21 1.58 1.6 3.52-7.16-.06 1.65-3.51M100.898 32.471c-2.48 2.479-2.48 6.51 0 9a6.375 6.375 0 0 0 9 0c2.48-2.48 2.48-6.511 0-9-2.49-2.481-6.52-2.481-9 0zm7.05 7.059a3.615 3.615 0 0 1-5.11 0 3.627 3.627 0 0 1 0-5.12 3.627 3.627 0 0 1 5.12 0 3.618 3.618 0 0 1-.01 5.12zm-6.86 1.941l-3.47 7.819h15.63l-3.57-7.819-2.21 1.58 1.6 3.52-7.16-.061 1.65-3.51M78.458 32.471c-2.48 2.479-2.48 6.51 0 9 2.48 2.489 6.51 2.479 9 0 2.48-2.48 2.48-6.511 0-9-2.48-2.481-6.51-2.481-9 0zm7.06 7.059c-1.41 1.41-3.7 1.41-5.11 0s-1.41-3.7 0-5.12a3.627 3.627 0 0 1 5.12 0c1.4 1.42 1.4 3.71-.01 5.12zm-6.87 1.941l-3.47 7.819h15.63l-3.58-7.819-2.21 1.58 1.6 3.52-7.16-.061 1.65-3.51"/></g><g><circle fill="#DCB226" cx="31.578" cy="31.5" r="31.5"/><path fill="#FFF" d="M18.338 46.93V16.08h26.84V46.9l-13.6-7.34-13.24 7.37zm13.24-10.45l10.67 5.76V18.93h-20.98v23.291l10.31-5.741z"/></g><g><circle fill="#DCB226" cx="1542.826" cy="31.5" r="31.5"/><path fill="#FFF" d="M1538.731 52.414l-6.051-6.105.181-.803c.166-.752.371-2.941-.654-3.977-.867-.875-2.559-.762-3.825-.51l-.789.154-5.907-5.963 25.235-25.003 6.075 6.131-.438.946c-.008.017-1.081 2.457.354 3.904 1.468 1.482 4.067.503 4.093.493l.923-.367 6.04 6.095-25.237 25.005zm-2.802-7.09l2.822 2.848 20.973-20.781-2.6-2.624c-1.472.346-4.273.624-6.345-1.466-2.068-2.088-1.713-4.8-1.306-6.254l-2.572-2.596-20.974 20.78 2.684 2.709c2.493-.34 4.417.156 5.727 1.479 1.794 1.81 1.755 4.52 1.591 5.905z"/><path fill="#FFF" d="M1543.761 19.977l2.467 2.49-2.131 2.111-2.467-2.49zM1547.731 23.985l2.467 2.49-2.13 2.112-2.468-2.49zM1551.813 27.887l2.467 2.49-2.132 2.111-2.466-2.49z"/></g><g><circle fill="#C4197F" cx="1731.726" cy="31.501" r="31.399"/><ellipse fill="#FFF" cx="1739.617" cy="18.574" rx="2.871" ry="2.842"/><ellipse fill="#FFF" cx="1726.564" cy="12.649" rx="3.115" ry="3.083"/><path fill="#FFF" d="M1745.334 33.675l-4.05-2.617-.684-.437 2.242 8.471-1.244.25 2.351 10.217-1.542.062-3.363-9.594-2.056-.125-4.175 9.158-1.621-.742 3.053-8.977-1.059-.25 1.808-5.668-2.431-4.735-3.634-1.556-1.226-1.247-1.682 5.911 2.368 8.045v10.092h-2.553l-.501-9.221-1.619-2.805-1.32 3.863-5.283 8.162-1.807-1.309 3.925-7.85-.062-7.912.811-1.932-3.178-6.292 4.36-7.537 2.929-1.371c.871.747 2.243.748 2.243.748.435 1.06 1.807 2.057 1.807 2.057l1.555 6.604 3.553 1.682 1.37-3.613 3.114-1.62c.998.685 2.242.56 2.242.56l1.746 2.118 1.309 5.545 3.113 3.021-.809.844z"/></g><g><circle fill="#642667" cx="1291.53" cy="31.5" r="31.399"/><path fill="none" stroke="#FFF" stroke-width="3" stroke-miterlimit="10" d="M1291.531 13.005c-7.039 0-12.744 5.705-12.744 12.742 0 .88.088 1.74.256 2.569 1.023 6.859 12.488 21.436 12.488 21.436s11.463-14.576 12.484-21.436c.17-.829.26-1.689.26-2.569 0-7.037-5.707-12.742-12.744-12.742z"/><path fill="#FFF" d="M1291.531 17.226a9.064 9.064 0 1 0 0 18.129 9.064 9.064 0 0 0 0-18.129zm0 15.52a6.457 6.457 0 1 1 0-12.914 6.457 6.457 0 0 1 0 12.914z"/></g><g><circle fill="#78BC43" cx="1354.329" cy="31.5" r="31.399"/><path fill="none" stroke="#FFF" stroke-width="3" stroke-miterlimit="10" d="M1354.33 13.005c-7.039 0-12.744 5.705-12.744 12.742 0 .88.088 1.74.256 2.569 1.023 6.859 12.488 21.436 12.488 21.436s11.463-14.576 12.484-21.436c.17-.829.26-1.689.26-2.569 0-7.037-5.707-12.742-12.744-12.742z"/><path fill="#FFF" d="M1354.33 17.226a9.064 9.064 0 1 0 0 18.129 9.064 9.064 0 0 0 0-18.129zm0 15.52a6.457 6.457 0 1 1 0-12.914 6.457 6.457 0 0 1 0 12.914z"/></g><g><circle fill="#C4197F" cx="1417.128" cy="31.5" r="31.399"/><path fill="none" stroke="#FFF" stroke-width="3" stroke-miterlimit="10" d="M1417.129 13.005c-7.039 0-12.744 5.705-12.744 12.742 0 .88.088 1.74.256 2.569 1.023 6.859 12.488 21.436 12.488 21.436s11.463-14.576 12.484-21.436c.17-.829.26-1.689.26-2.569 0-7.037-5.707-12.742-12.744-12.742z"/><path fill="#FFF" d="M1417.129 17.226a9.064 9.064 0 1 0 0 18.129 9.064 9.064 0 0 0 0-18.129zm0 15.52a6.457 6.457 0 1 1 0-12.914 6.457 6.457 0 0 1 0 12.914z"/></g><g><circle fill="#EA8A23" cx="1479.927" cy="31.5" r="31.399"/><path fill="none" stroke="#FFF" stroke-width="3" stroke-miterlimit="10" d="M1479.928 13.005c-7.039 0-12.744 5.705-12.744 12.742 0 .88.088 1.74.256 2.569 1.023 6.859 12.488 21.436 12.488 21.436s11.463-14.576 12.484-21.436c.17-.829.26-1.689.26-2.569 0-7.037-5.707-12.742-12.744-12.742z"/><path fill="#FFF" d="M1479.928 17.226a9.064 9.064 0 1 0 0 18.129 9.064 9.064 0 0 0 0-18.129zm0 15.52a6.457 6.457 0 1 1 0-12.914 6.457 6.457 0 0 1 0 12.914z"/></g><g><circle fill="#642667" cx="1920.623" cy="31.5" r="31.399"/></g><g><path fill="#FFF" d="M1910.001 18.003l10.91 9.071-2.896 6.328-14.11-2.065 6.036-5.407.06-7.927zm1.686 8.714l-3.83 3.43 9.115 1.333 1.79-3.916-7.039-5.853-.036 5.006z"/><path fill="#FFF" d="M1937.342 13.648l-18.535 40.506-.416.1c-5.095 1.205-8.421-2.383-9.471-4.449l-.191-.377 18.517-40.23c-.001-.001 6.189-.643 10.096 4.45zm-9.116-2.41l-17.541 38.123c.658 1.049 2.897 3.996 6.893 3.275l17.552-38.429c-2.268-3.08-6.904-2.969-6.904-2.969z"/><path fill="#FFF" d="M1915.378 34.898l4.637-10.131 1.591.728-4.209 9.196c.853 1.021 3.471 3.672 7.242 3.023l.299 1.725c-5.666.973-9.131-3.924-9.275-4.133l-.285-.408z"/><path fill="#FFF" d="M1920.209 25.723l1.438-.998c.12.171 2.99 4.188 7.541 3.404l.297 1.724c-5.666.976-9.131-3.921-9.276-4.13z"/></g></svg>